<?xml version="1.0" encoding="UTF-8"?>
<svg xmlns="http://www.w3.org/2000/svg" style="stroke-dasharray:none; shape-rendering:auto; font-family:'Arial'; text-rendering:auto; fill-opacity:1; color-interpolation:auto; color-rendering:auto; font-size:12; fill:black; stroke:black; image-rendering:auto; stroke-miterlimit:10; stroke-linecap:square; stroke-linejoin:miter; font-style:normal; stroke-width:1; stroke-dashoffset:0; font-weight:normal; stroke-opacity:1;" contentScriptType="text/ecmascript" preserveAspectRatio="xMidYMid meet" zoomAndPan="magnify" version="1.0" contentStyleType="text/css" xml:xlink="http://www.w3.org/1999/xlink" width="871" height="467"><rect x="390" y="350" width="481" height="117" ry="0" rx="0" style="stroke:#000000; fill:#82B0B7" /><g componentSequence="4"><text x="-408" y="398" transform="rotate(270)" text-anchor="middle" style="font-weight:bold;font-size:10px;stroke:none; fill:#434343"><tspan dy="14" x="-408">Reprovar</tspan></text></g><rect x="2" y="133" width="869" height="218" ry="0" rx="0" style="stroke:#000000; fill:#FFFFFF" /><g componentSequence="3"><text x="-242" y="10" transform="rotate(270)" text-anchor="middle" style="font-weight:bold;font-size:10px;stroke:none; fill:#434343"><tspan dy="14" x="-242">Etapas</tspan></text></g><rect x="2" y="350" width="389" height="117" ry="0" rx="0" style="stroke:#000000; fill:#A7FCC0" /><g componentSequence="2"><text x="-408" y="10" transform="rotate(270)" text-anchor="middle" style="font-weight:bold;font-size:10px;stroke:none; fill:#434343"><tspan dy="14" x="-408">Aprovar</tspan></text></g><rect x="2" y="0" width="869" height="134" ry="0" rx="0" style="stroke:#000000; fill:#FFFFFF" /><g componentSequence="1"><text x="-67" y="10" transform="rotate(270)" text-anchor="middle" style="font-weight:bold;font-size:10px;stroke:none; fill:#434343"><tspan dy="14" x="-67">Solicitante</tspan></text></g><g sequence="2"><ellipse cx="537" cy="27" rx="17" ry="17" stroke-width="1" style="fill:url(#linearGradient66FF6696FF96B6FFB6_603515199);" stroke="336633" /></g><g sequence="8"><ellipse cx="267" cy="397" rx="17" ry="17" stroke-width="3" style="fill:url(#linearGradientFF6666FF9696FFB6B6_759104304);" stroke="993333" /></g><g sequence="134"><ellipse cx="717" cy="397" rx="17" ry="17" stroke-width="3" style="fill:url(#linearGradientFF6666FF9696FFB6B6_687899215);" stroke="993333" /></g><g sequence="134"><polygon points=" 708 393 713 388 718 393 723 388 728 393 723 398 728 403 723 408 718 403 713 408 708 403 713 398" style="stroke:none; fill:#993333" /></g><g sequence="145"><rect x="140" y="183" width="106" height="124" ry="5" rx="5" style="fill:url(#linearGradientF8FBFEEDF5FCDEEDFAD4E7F8E2E5E9_1812072715);" stroke="191970" /></g><g componentSequence="145"><text x="193" y="198" text-anchor="middle" style="font-weight:bold;font-size:10px;stroke:none; fill:#333399"><tspan dy="14" x="193">Gestor do</tspan><tspan dy="14" x="193">Centro de</tspan><tspan dy="14" x="193">Custos -</tspan><tspan dy="14" x="193">Validar</tspan><tspan dy="14" x="193">solicitação</tspan></text></g><g sequence="161"><rect x="490" y="210" width="106" height="108" ry="5" rx="5" style="fill:url(#linearGradientF8FBFEEDF5FCDEEDFAD4E7F8E2E5E9_148350117);" stroke="191970" /></g><g componentSequence="161"><text x="543" y="225" text-anchor="middle" style="font-weight:bold;font-size:10px;stroke:none; fill:#333399"><tspan dy="14" x="543">Aprovado -</tspan><tspan dy="14" x="543">Gestor DA -</tspan><tspan dy="14" x="543">Validar</tspan><tspan dy="14" x="543">solicitação</tspan></text></g><g sequence="172"><rect x="70" y="10" width="106" height="92" ry="5" rx="5" style="fill:url(#linearGradientF8FBFEEDF5FCDEEDFAD4E7F8E2E5E9_1562640396);" stroke="191970" /></g><g componentSequence="172"><text x="123" y="25" text-anchor="middle" style="font-weight:bold;font-size:10px;stroke:none; fill:#333399"><tspan dy="14" x="123">Processamen</tspan><tspan dy="14" x="123">to da</tspan><tspan dy="14" x="123">Solicitação</tspan></text></g><g sequence="180"><rect x="710" y="23" width="106" height="92" ry="5" rx="5" style="fill:url(#linearGradientF8FBFEEDF5FCDEEDFAD4E7F8E2E5E9_1880879901);" stroke="191970" /></g><g componentSequence="180"><text x="763" y="38" text-anchor="middle" style="font-weight:bold;font-size:10px;stroke:none; fill:#333399"><tspan dy="14" x="763">Solicitante -</tspan><tspan dy="14" x="763">Ajustar</tspan><tspan dy="14" x="763">solicitação</tspan></text></g><g componentSequence="163"><text x="397" y="339" style="font-size:10px;font-weight:none;stroke:none; fill:#333399" text-anchor="left" /></g><g componentSequence="166"><text x="358" y="40" style="font-size:10px;font-weight:none;stroke:none; fill:#333399" text-anchor="left" /></g><g componentSequence="184"><text x="453" y="62" style="font-size:10px;font-weight:none;stroke:none; fill:#333399" text-anchor="left" /></g><g componentSequence="187"><text x="165" y="142" style="font-size:10px;font-weight:none;stroke:none; fill:#333399" text-anchor="left" /></g><g componentSequence="189"><text x="378" y="254" style="font-size:10px;font-weight:none;stroke:none; fill:#333399" text-anchor="left" /></g><g componentSequence="190"><text x="488" y="157" style="font-size:10px;font-weight:none;stroke:none; fill:#333399" text-anchor="left" /></g><g componentSequence="191"><text x="748" y="247" style="font-size:10px;font-weight:none;stroke:none; fill:#333399" text-anchor="left" /></g><g componentSequence="192"><text x="100" y="204" style="font-size:10px;font-weight:none;stroke:none; fill:#333399" text-anchor="left" /></g><g componentSequence="193"><text x="658" y="344" style="font-size:10px;font-weight:none;stroke:none; fill:#333399" text-anchor="left" /></g><g componentSequence="194"><text x="395" y="445" style="font-size:10px;font-weight:none;stroke:none; fill:#333399" text-anchor="left" /></g><g componentSequence="195"><text x="373" y="315" style="font-size:10px;font-weight:none;stroke:none; fill:#333399" text-anchor="left" /></g><path style="fill:none; stroke:#000000;stroke-width:1" d="M520.0 28.0 L176.0 52.0" /><polygon style="fill:#000000; stroke:#000000;" points=" 186 56 176 52 186 46 184 51" /><path style="fill:none; stroke:#000000;stroke-width:1" d="M489.0 289.0 L283.0 390.0" /><polygon style="fill:#000000; stroke:#000000;" points=" 294 390 283 390 290 381 290 386" /><path style="fill:none; stroke:#000000;stroke-width:1" d="M756.0 115.0 L719.0 380.0" /><polygon style="fill:#000000; stroke:#000000;" points=" 725 371 719 380 715 369 720 372" /><path style="fill:none; stroke:#000000;stroke-width:1" d="M596.0 304.0 L703.0 387.0" /><polygon style="fill:#000000; stroke:#000000;" points=" 698 377 703 387 692 385 697 382" /><path style="fill:none; stroke:#000000;stroke-width:1" d="M185.0 307.0 L168.0 445.0 L710.0 445.0 L715.0 414.0" /><polygon style="fill:#000000; stroke:#000000;" points=" 708 423 715 414 718 425 714 422" /><path style="fill:none; stroke:#000000;stroke-width:1" d="M246.0 247.0 L489.0 261.0" /><polygon style="fill:#000000; stroke:#000000;" points=" 479 255 489 261 479 265 481 261" /><path style="fill:none; stroke:#000000;stroke-width:1" d="M246.0 228.0 L709.0 85.0" /><polygon style="fill:#000000; stroke:#000000;" points=" 698 83 709 85 701 93 701 87" /><path style="fill:none; stroke:#000000;stroke-width:1" d="M140.0 102.0 L169.0 182.0" /><polygon style="fill:#000000; stroke:#000000;" points=" 170 171 169 182 161 174 166 174" /><path style="fill:none; stroke:#009600;stroke-width:1" d="M112.0 102.0 L80.0 249.0 L139.0 247.0" /><polygon style="fill:#009600; stroke:#009600;" points=" 129 242 139 247 129 252 131 247" /><path style="fill:none; stroke:#000000;stroke-width:1" d="M489.0 279.0 L338.0 322.0 L246.0 273.0" /><polygon style="fill:#000000; stroke:#000000;" points=" 252 282 246 273 257 273 253 277" /><path style="fill:none; stroke:#000000;stroke-width:1" d="M709.0 67.0 L176.0 57.0" /><polygon style="fill:#000000; stroke:#000000;" points=" 186 62 176 57 186 52 184 57" /><defs><linearGradient xmlns:xlink="http://www.w3.org/1999/xlink" xlink:href="#linearGradient66FF6696FF96B6FFB6" id="linearGradient66FF6696FF96B6FFB6_603515199" x1="0" y1="10.0" x2="0" y2="45.0" gradientUnits="userSpaceOnUse" xlink:type="simple" xlink:actuate="onLoad" xlink:show="other" /><linearGradient id="linearGradient66FF6696FF96B6FFB6"><stop style="stop-color:#66FF66;stop-opacity:1;" offset="0.0" id="stop66FF66" /><stop style="stop-color:#96FF96;stop-opacity:1;" offset="0.5" id="stop96FF96" /><stop style="stop-color:#B6FFB6;stop-opacity:1;" offset="1.0" id="stopB6FFB6" /></linearGradient><linearGradient xmlns:xlink="http://www.w3.org/1999/xlink" xlink:href="#linearGradientFF6666FF9696FFB6B6" id="linearGradientFF6666FF9696FFB6B6_759104304" x1="0" y1="380.0" x2="0" y2="415.0" gradientUnits="userSpaceOnUse" xlink:type="simple" xlink:actuate="onLoad" xlink:show="other" /><linearGradient id="linearGradientFF6666FF9696FFB6B6"><stop style="stop-color:#FF6666;stop-opacity:1;" offset="0.0" id="stopFF6666" /><stop style="stop-color:#FF9696;stop-opacity:1;" offset="0.5" id="stopFF9696" /><stop style="stop-color:#FFB6B6;stop-opacity:1;" offset="1.0" id="stopFFB6B6" /></linearGradient><linearGradient xmlns:xlink="http://www.w3.org/1999/xlink" xlink:href="#linearGradientFF6666FF9696FFB6B6" id="linearGradientFF6666FF9696FFB6B6_687899215" x1="0" y1="380.0" x2="0" y2="415.0" gradientUnits="userSpaceOnUse" xlink:type="simple" xlink:actuate="onLoad" xlink:show="other" /><linearGradient xmlns:xlink="http://www.w3.org/1999/xlink" xlink:href="#linearGradientF8FBFEEDF5FCDEEDFAD4E7F8E2E5E9" id="linearGradientF8FBFEEDF5FCDEEDFAD4E7F8E2E5E9_1812072715" x1="0" y1="183.0" x2="0" y2="289.0" gradientUnits="userSpaceOnUse" xlink:type="simple" xlink:actuate="onLoad" xlink:show="other" /><linearGradient id="linearGradientF8FBFEEDF5FCDEEDFAD4E7F8E2E5E9"><stop style="stop-color:#F8FBFE;stop-opacity:1;" offset="0.0" id="stopF8FBFE" /><stop style="stop-color:#EDF5FC;stop-opacity:1;" offset="0.25" id="stopEDF5FC" /><stop style="stop-color:#DEEDFA;stop-opacity:1;" offset="0.5" id="stopDEEDFA" /><stop style="stop-color:#D4E7F8;stop-opacity:1;" offset="0.75" id="stopD4E7F8" /><stop style="stop-color:#E2E5E9;stop-opacity:1;" offset="1.0" id="stopE2E5E9" /></linearGradient><linearGradient xmlns:xlink="http://www.w3.org/1999/xlink" xlink:href="#linearGradientF8FBFEEDF5FCDEEDFAD4E7F8E2E5E9" id="linearGradientF8FBFEEDF5FCDEEDFAD4E7F8E2E5E9_148350117" x1="0" y1="210.0" x2="0" y2="316.0" gradientUnits="userSpaceOnUse" xlink:type="simple" xlink:actuate="onLoad" xlink:show="other" /><linearGradient xmlns:xlink="http://www.w3.org/1999/xlink" xlink:href="#linearGradientF8FBFEEDF5FCDEEDFAD4E7F8E2E5E9" id="linearGradientF8FBFEEDF5FCDEEDFAD4E7F8E2E5E9_1562640396" x1="0" y1="10.0" x2="0" y2="116.0" gradientUnits="userSpaceOnUse" xlink:type="simple" xlink:actuate="onLoad" xlink:show="other" /><linearGradient xmlns:xlink="http://www.w3.org/1999/xlink" xlink:href="#linearGradientF8FBFEEDF5FCDEEDFAD4E7F8E2E5E9" id="linearGradientF8FBFEEDF5FCDEEDFAD4E7F8E2E5E9_1880879901" x1="0" y1="23.0" x2="0" y2="129.0" gradientUnits="userSpaceOnUse" xlink:type="simple" xlink:actuate="onLoad" xlink:show="other" /></defs></svg>
